<?xml version="1.0" encoding="UTF-8"?>
<svg xmlns="http://www.w3.org/2000/svg" version="1.1" viewBox="0 0 80 80">
 <path fill="#000" d="M40,0C17.94,0,0,17.94,0,40s17.94,40,40,40,40-17.94,40-40S62.06,0,40,0ZM40,70.79c-16.98,0-30.79-13.81-30.79-30.79s13.81-30.79,30.79-30.79,30.79,13.81,30.79,30.79-13.81,30.79-30.79,30.79Z"/>
 <path fill="#000" d="M55.85,24.15c-1.85-1.85-4.85-1.85-6.7,0l-9.14,9.14-9.14-9.14c-1.85-1.85-4.85-1.85-6.7,0-1.85,1.85-1.85,4.85,0,6.7l9.14,9.14-9.14,9.14c-1.85,1.85-1.85,4.85,0,6.7.93.93,2.14,1.39,3.35,1.39s2.43-.46,3.35-1.39l9.14-9.14,9.14,9.14c.93.93,2.14,1.39,3.35,1.39s2.43-.46,3.35-1.39c1.85-1.85,1.85-4.85,0-6.7l-9.14-9.14,9.14-9.14c1.85-1.85,1.85-4.85,0-6.7Z"/>
</svg>