<?xml version="1.0" encoding="UTF-8"?>
<svg xmlns="http://www.w3.org/2000/svg" version="1.1" viewBox="0 0 118.7 118.7">
 <path fill="#FFF" d="M25.6,49.7h-8.9c-.4,0-.9,0-1.3,0-.1,0-.3,0-.4,0-.3,0-.6.1-.9.2-.1,0-.3,0-.4.1-.3,0-.6.2-.9.3-.1,0-.2,0-.3.1-.3.1-.7.3-1,.4,0,0-.1,0-.2,0-3.8,2-6.5,6-6.5,10.6v8.5c0,6.6,5.3,11.9,11.9,11.9h8.9c1.8,0,3.3-1.5,3.3-3.3v-25.7c0-1.8-1.5-3.3-3.3-3.3Z"/>
 <path fill="#FFF" d="M112.4,55.6s0,0,0-.1c-.6-1-1.3-1.8-2.1-2.6,0,0-.1,0-.1-.1-.4-.4-.8-.7-1.3-1h0c-.4-.3-.9-.6-1.4-.8s-.2,0-.3-.1c-.5-.2-.9-.4-1.4-.6,0,0,0,0,0,0-.5-.1-1-.3-1.5-.4-.1,0-.3,0-.4,0-.5,0-1.1-.1-1.6-.1h-8.9c-1.8,0-3.3,1.5-3.3,3.3v25.7c0,1.8,1.5,3.3,3.3,3.3h8.9c.6,0,1.1,0,1.7-.1.1,0,.3,0,.4,0,.5,0,1.1-.2,1.6-.4,0,0,0,0,0,0,.5-.1,1-.4,1.4-.6.1,0,.2,0,.3-.1.5-.2,1-.5,1.4-.8h0c.4-.3.8-.7,1.3-1,0,0,.1,0,.1-.1.8-.8,1.5-1.6,2.1-2.6,0,0,0,0,0-.1.3-.5.5-1,.8-1.5h0c.6-1.4.9-2.9.9-4.4v-8.5c0-2.2-.6-4.2-1.7-6Z"/>
 <path fill="#FFF" d="M96.8,43.4c.3,0,.5,0,.7,0h4.6c3.9,0,7.5,1.3,10.5,3.3-.3-2.2-.8-4.4-1.4-6.6C104.8,16.5,83.2,0,58.7,0S13.7,15.5,6.6,38.5c-.9,3.1-1.6,6.2-1.9,9.4,3.2-2.8,7.4-4.6,12.1-4.6h4c0-.1,0-.3.1-.5,5.1-16.8,20.4-28,37.9-28,17.6,0,33.1,11.7,38,28.6Z"/>
 <path fill="#FFF" d="M98.3,88.4c0,5.2-4.3,9.5-9.6,9.5h-14.8c-1.7-3.5-5.3-6-9.5-6h-13.8c-5.8,0-10.5,4.7-10.5,10.5v5.9c0,5.8,4.7,10.5,10.5,10.5h13.8c4.2,0,7.8-2.5,9.5-6h14.8c13.5,0,24.4-11,24.4-24.4v-3.6c-3.1,2.4-6.9,3.8-11.1,3.8h-3.8Z"/>
</svg>
