<?xml version="1.0" encoding="UTF-8"?>
<svg xmlns="http://www.w3.org/2000/svg" version="1.1" viewBox="0 0 118.7 118.7">
 <path fill="#FFF" d="M109.1,17.6c-6.2-6.2-14.5-9.6-23.2-9.6s-17,3.4-23.2,9.6c-1.2,1.2-2.3,2.5-3.3,3.8-1-1.4-2.1-2.6-3.3-3.8-12.8-12.8-33.7-12.8-46.5,0-12.8,12.8-12.8,33.7,0,46.5l45.1,45.1c1.1,1.1,2.5,1.6,3.9,1.6s2.7-.5,3.8-1.5l8.4-8-7.6-8-4.5,4.3L17.4,56.3c-8.5-8.5-8.5-22.4,0-30.9,8.5-8.5,22.4-8.5,30.9,0,2.8,2.8,4.8,6.3,5.7,10.2.6,2.5,2.8,4.2,5.3,4.2h0c2.5,0,4.7-1.7,5.3-4.2,1-3.9,2.9-7.4,5.7-10.2,4.1-4.1,9.6-6.4,15.4-6.4s11.3,2.3,15.5,6.4c8.5,8.5,8.5,22.4,0,30.9l7.8,7.8c12.8-12.8,12.8-33.7,0-46.5Z"/>
 <path fill="#FFF" d="M82.9,63c1.4,0,2.6,1.2,2.6,2.6h11c0-5.5-3.3-10.3-8.1-12.4v-4.2h-11v4.2c-4.8,2.1-8.1,6.9-8.1,12.4s6.1,13.6,13.6,13.6,2.6,1.2,2.6,2.6-1.2,2.6-2.6,2.6-2.6-1.2-2.6-2.6h-11c0,5.5,3.3,10.3,8.1,12.4v4.2h11v-4.2c4.8-2.1,8.1-6.9,8.1-12.4s-6.1-13.6-13.6-13.6-2.6-1.2-2.6-2.6,1.2-2.6,2.6-2.6Z"/>
</svg>
