<?xml version="1.0" encoding="utf-8"?>
<svg version="1.1" xmlns="http://www.w3.org/2000/svg" xmlns:xlink="http://www.w3.org/1999/xlink" viewBox="0 0 118.7 118.7">
 <path d="M58.6,103.5c-1.4,0-2.7-0.4-3.8-1.3l-52-37.6C1,63.5,0,61.5,0,59.4c0-2.1,1-4.1,2.7-5.3l52-37.6c2-1.4,4.6-1.7,6.8-0.5	c2.2,1.1,3.6,3.4,3.6,5.8v13.8c20.3,4.3,51.5,20.4,53.6,58.7c0.1,2.5-1.1,4.8-3.3,6.1c-2.2,1.2-4.8,1.1-6.9-0.3	c-11.9-7.9-32.3-13.3-43.4-15.7V97c0,2.5-1.4,4.7-3.6,5.8C60.6,103.3,59.6,103.5,58.6,103.5z M17.7,59.4L52,84.1v-7.8	c0-1.9,0.8-3.8,2.3-5c1.5-1.3,3.4-1.8,5.3-1.4c1.2,0.2,24.8,4.3,43.9,12.7c-9.2-30.5-44.1-34.7-45.7-34.9c-3.3-0.4-5.8-3.2-5.8-6.5	v-6.5L17.7,59.4z"/>
</svg>
