<?xml version="1.0" encoding="UTF-8"?>
<svg xmlns="http://www.w3.org/2000/svg" version="1.1" viewBox="0 0 80 80">
 <path fill="#000" d="M79.19,38.41c-2.76-5.43-6.36-10.13-10.54-13.98l-4.94,4.94c3.25,2.96,6.1,6.53,8.4,10.63-7,12.5-19.16,20.19-32.11,20.19-2.18,0-4.33-.24-6.45-.66l-5.74,5.74c3.92,1.24,8.01,1.91,12.19,1.91,16.14,0,31.16-9.81,39.19-25.6l.81-1.59-.81-1.59Z"/>
 <path fill="#000" d="M16.28,50.63c-3.25-2.96-6.1-6.53-8.4-10.63,7-12.5,19.16-20.19,32.11-20.19,2.18,0,4.33.24,6.45.66l5.74-5.74c-3.92-1.24-8.01-1.91-12.19-1.91C23.86,12.81,8.84,22.62.81,38.41L0,40l.81,1.59c2.76,5.43,6.36,10.13,10.54,13.98l4.94-4.94Z"/>
 <rect fill="#000" x="2.2" y="36.4" width="75.6" height="7.2" transform="translate(-16.57 40) rotate(-45)"/>
 <path fill="#000" d="M40,31.18c.1,0,.19.01.29.01l5.79-5.79c-1.87-.78-3.92-1.22-6.08-1.22-8.72,0-15.81,7.09-15.81,15.81,0,2.15.44,4.2,1.22,6.08l5.79-5.79c0-.1-.01-.19-.01-.29,0-4.86,3.96-8.82,8.82-8.82Z"/>
 <path fill="#000" d="M40,48.82c-.1,0-.19-.01-.29-.01l-5.79,5.79c1.87.78,3.92,1.22,6.08,1.22,8.72,0,15.81-7.09,15.81-15.81,0-2.15-.44-4.2-1.22-6.08l-5.79,5.79c0,.1.01.19.01.29,0,4.86-3.96,8.82-8.82,8.82Z"/>
</svg>
