<?xml version="1.0" encoding="UTF-8"?>
<svg xmlns="http://www.w3.org/2000/svg" version="1.1" viewBox="0 0 118.7 118.7">
 <path d="M42.5,65h2.1c6.4,0,11.7-5.1,11.9-11.5l1-45.4h-16.9l-9.5,41.9c-2.1,7.6,3.6,15,11.4,15Z"/>
 <path d="M74.1,65h2.1c7.9,0,13.5-7.5,11.4-15l-9.5-41.8h-16.9l1,45.4c.2,6.4,5.4,11.5,11.9,11.5Z"/>
 <path d="M117.1,47.1l-18.4-39.1h-16.9l13.7,48.6v42.1h-24.7c0-.2,0-.4,0-.5v-13.9c0-6.3-5.1-11.5-11.5-11.5s-11.5,5.1-11.5,11.5v13.9c0,.2,0,.4,0,.5h-24.7v-42.1l13.7-48.6h-16.9L1.6,47.1c-4.3,7.5.5,16.7,8.7,17.7v46.8h98v-46.8c8.2-1,13.1-10.3,8.7-17.7Z"/>
</svg>
