<?xml version="1.0" encoding="UTF-8"?>
<svg xmlns="http://www.w3.org/2000/svg" version="1.1" viewBox="0 0 80 80">
 <path fill="#000" d="M71.19,39.78c-.11,7.73-.3,10.27-.59,12.81l-.04.33c-1.04,9.28-8.26,16.5-17.56,17.55l-.13.02c-8.5.96-17.12.96-25.61,0l-.17-.02c-9.28-1.05-16.49-8.27-17.54-17.55l-.04-.33c-.96-8.5-.95-17.13.02-25.63,1.05-9.27,8.27-16.48,17.55-17.53l.16-.02c2.59-.29,5.19-.49,12.98-.6V0c-8.12.12-11.06.33-13.98.66l-.16.02C12.71,2.19,2.3,12.59.78,25.96c-1.04,9.16-1.05,18.45-.02,27.61l.04.33c1.51,13.39,11.91,23.8,25.28,25.31l.17.02c4.58.52,9.19.78,13.8.78s9.23-.26,13.82-.78l.13-.02c13.39-1.51,23.79-11.92,25.3-25.32l.04-.33c.32-2.86.53-5.73.65-13.79h-8.81Z"/>
 <polygon fill="#000" points="69.29 29.41 75.49 23.2 71.61 8.44 56.85 4.56 50.64 10.77 60.47 13.35 35.28 38.54 41.5 44.77 66.7 19.57 69.29 29.41"/>
</svg>
