<?xml version="1.0" encoding="UTF-8"?>
<svg xmlns="http://www.w3.org/2000/svg" version="1.1" viewBox="0 0 118.7 118.7">
 <path fill="#000" d="M70.4,25.5c-1.1-4.4-4.6-7.9-9-9-4.4-1.1-9.1.3-12.2,3.6l-18.3,20c0,0-.2.1-.2.1l-21.3,5c-3.2.8-5.9,2.8-7.6,5.7s-2.2,6.2-1.4,9.4l4.8,19.2c.8,3.2,2.8,5.9,5.7,7.6,2.8,1.7,6.2,2.2,9.3,1.4l8-1.9,4,16.1,11.5-2.9-4-15.9,1.7-.4c.1,0,.2,0,.3,0l25.6,9c1.3.5,2.7.7,4.1.7,3,0,6-1.1,8.4-3.3,3.4-3.1,4.8-7.8,3.7-12.2l-13.1-52.2ZM71.8,81.3c-.2.2-.4.2-.6.1l-25.6-9c-1.3-.5-2.7-.7-4.1-.7s-2,.1-2.9.4l-21.3,5c-.2,0-.3,0-.4,0s-.2-.2-.3-.3l-4.8-19.2c0-.2,0-.3,0-.4s.2-.2.3-.2l21.3-5c2.4-.6,4.5-1.9,6.1-3.7l18.3-20c0,0,.2-.3.5-.2.3,0,.4.3.4.4l13.1,52.3c0,.1,0,.3-.2.6Z"/>
 <path fill="#000" d="M117.9,41.1c-4-16.7-20.8-26.9-37.5-22.9l2.6,10.8c10.7-2.6,21.5,4,24.1,14.7,2.6,10.7-4,21.5-14.7,24.1l2.6,10.7c16.7-4,26.9-20.8,22.9-37.5Z"/>
 <path fill="#000" d="M95.9,46.4c-1.1-4.5-5.7-7.3-10.2-6.2l4,16.4c4.5-1.1,7.3-5.7,6.2-10.2Z"/>
</svg>
