<?xml version="1.0" encoding="UTF-8"?>
<svg xmlns="http://www.w3.org/2000/svg" version="1.1" viewBox="0 0 80 80">
 <path fill="#000" d="M79.29,36.83c-.8-1.23-2.17-1.96-3.63-1.96H15.2c-1.73,0-3.29,1.02-3.98,2.61l-2.78,6.38v-23.53h17.98l5.91,8.41h36.75v-4.72c0-2.06-1.67-3.72-3.72-3.72h-26.71c-1.21,0-2.35-.59-3.05-1.58l-3.69-5.24c-.7-.99-1.83-1.58-3.05-1.58H3.72c-2.06,0-3.72,1.67-3.72,3.72v48.78c0,2.06,1.67,3.72,3.72,3.72h61.63c1.62,0,2.99-1.05,3.5-2.5h.03s10.75-24.67,10.75-24.67c.58-1.34.45-2.89-.35-4.11ZM18.05,43.55h50.98l-7.02,16.12H11.02l7.02-16.12Z"/>
</svg>
