<?xml version="1.0" encoding="UTF-8"?>
<svg xmlns="http://www.w3.org/2000/svg" version="1.1" viewBox="0 0 80 80">
 <path fill="#000" d="M34.99,79.71H13.78C6.18,79.71.02,73.55.02,65.95v-8.22c0-2.42,1.96-4.37,4.37-4.37h30.59c2.42,0,4.37,1.96,4.37,4.37v17.6c0,2.42-1.96,4.37-4.37,4.37ZM13.12,70.96h17.5v-8.85H8.77v4.51c0,2.4,1.94,4.34,4.34,4.34Z"/>
 <path fill="#000" d="M75.6,26.64h-30.59c-2.42,0-4.37-1.96-4.37-4.37V4.67c0-2.42,1.96-4.37,4.37-4.37h21.21c7.6,0,13.76,6.16,13.76,13.76v8.22c0,2.42-1.96,4.37-4.37,4.37ZM49.38,17.89h21.84v-4.51c0-2.4-1.94-4.34-4.34-4.34h-17.5v8.85Z"/>
 <path fill="#000" d="M66.92,33.6l-13.08,7.64v8.71l8.69-5.07v8.65c0,4.61-3.73,8.34-8.34,8.34h-8.76v8.78h9.07c9.29,0,16.82-7.53,16.82-16.82v-4.12s0-4.83,0-4.83l8.69,5.07v-8.71l-13.08-7.64Z"/>
 <path fill="#000" d="M26.16,38.76v-8.71l-8.69,5.07v-8.65c0-4.61,3.73-8.34,8.34-8.34h8.76v-8.78h-9.07c-9.29,0-16.82,7.53-16.82,16.82h0s0,3.1,0,3.1v5.86L0,30.05v8.71l13.08,7.64,13.08-7.64Z"/>
</svg>
