<?xml version="1.0" encoding="UTF-8"?>
<svg xmlns="http://www.w3.org/2000/svg" version="1.1" viewBox="0 0 118.7 118.7">
 <path fill="#000" d="M117.5,57c-11.9-23.4-34.2-38-58.2-38S13.1,33.6,1.2,57l-1.2,2.4,1.2,2.4c11.9,23.4,34.2,38,58.2,38s46.2-14.6,58.2-38l1.2-2.4-1.2-2.4ZM59.4,89.3c-19.2,0-37.3-11.4-47.7-30,10.4-18.6,28.4-30,47.7-30s37.3,11.4,47.7,30c-10.4,18.6-28.4,30-47.7,30Z"/>
 <path fill="#000" d="M59.4,35.9c-12.9,0-23.5,10.5-23.5,23.5s10.5,23.5,23.5,23.5,23.5-10.5,23.5-23.5-10.5-23.5-23.5-23.5ZM59.4,72.5c-7.2,0-13.1-5.9-13.1-13.1s5.9-13.1,13.1-13.1,13.1,5.9,13.1,13.1-5.9,13.1-13.1,13.1Z"/>
</svg>