<?xml version="1.0" encoding="UTF-8"?>
<svg xmlns="http://www.w3.org/2000/svg" version="1.1" viewBox="0 0 80 80">
 <path fill="#000" d="M11.49,73.97c-1.31,1.31-3.04,1.97-4.76,1.97s-3.45-.66-4.76-1.97c-2.63-2.63-2.63-6.89,0-9.52l24.45-24.45L1.97,15.55C-.66,12.92-.66,8.66,1.97,6.03c2.63-2.63,6.89-2.63,9.52,0l29.21,29.21c2.63,2.63,2.63,6.89,0,9.52l-29.21,29.21ZM78.03,44.76l-29.21,29.21c-1.31,1.31-3.04,1.97-4.76,1.97s-3.45-.66-4.76-1.97c-2.63-2.63-2.63-6.89,0-9.52l24.45-24.45-24.45-24.45c-2.63-2.63-2.63-6.89,0-9.52,2.63-2.63,6.89-2.63,9.52,0l29.21,29.21c2.63,2.63,2.63,6.89,0,9.52Z"/>
</svg>
