<?xml version="1.0" encoding="UTF-8"?>
<svg xmlns="http://www.w3.org/2000/svg" version="1.1" viewBox="0 0 80 80">
 <path fill="#000" d="M74.21,31.02c-1.07-2.21-2.94-3.87-5.27-4.68l-25.12-8.69c-2.32-.8-4.82-.66-7.03.42-2.21,1.07-3.87,2.94-4.68,5.27l-12.37,35.75c-1.66,4.79.89,10.05,5.69,11.71l25.12,8.69c.99.34,2,.51,3.02.51,1.37,0,2.74-.31,4.01-.93,2.21-1.07,3.87-2.94,4.68-5.27l12.37-35.75c.8-2.32.66-4.82-.42-7.03ZM66.75,35.32l-12.37,35.75c-.1.28-.29.42-.44.5-.15.07-.38.13-.66.04h0l-25.12-8.69c-.45-.16-.69-.65-.54-1.1l12.37-35.75c.1-.28.29-.42.44-.49.09-.05.22-.09.38-.09.09,0,.18.01.29.05l25.12,8.69c.28.1.42.29.49.44.07.15.14.38.04.66Z"/>
 <path fill="#000" d="M13.2,47.9V8.34h28.31v4.56l8.34,2.89V7.1c0-3.92-3.18-7.1-7.1-7.1H11.96c-3.92,0-7.1,3.18-7.1,7.1v42.04c0,3.92,3.18,7.1,7.1,7.1h4.73l2.89-8.34h-6.38Z"/>
</svg>
