<?xml version="1.0" encoding="UTF-8"?>
<svg xmlns="http://www.w3.org/2000/svg" version="1.1" viewBox="0 0 80 80">
 <path fill="#000" d="M16.02,36.38l8.39,2.99-4.87,11.73c-2.23,5.37,0,11.47,5.06,13.89,2.64,1.27,5.61,1.39,8.34.34,2.69-1.03,4.87-3.15,5.98-5.81l1.09-2.64,1.03,2.49c1.69,4.08,5.64,6.67,9.83,6.67.65,0,1.31-.06,1.96-.19,3.16-.62,5.83-2.59,7.33-5.39,1.5-2.81,1.66-6.1.44-9.04l-5.01-12.06,8.39-2.99c3-1.07,5.33-3.4,6.4-6.4,1.07-3,.73-6.3-.93-9.05h0c-2.56-4.26-7.91-6.1-12.72-4.39-2.9,1.03-5.88,1.78-8.89,2.26,1.97-2,3.19-4.74,3.19-7.76,0-6.09-4.95-11.04-11.04-11.04s-11.04,4.95-11.04,11.04c0,3.02,1.22,5.76,3.19,7.76-3.01-.48-5.99-1.23-8.89-2.26-4.81-1.71-10.15.13-12.72,4.39-1.66,2.76-2,6.06-.93,9.05,1.07,3,3.4,5.33,6.4,6.4ZM40,8.83c1.22,0,2.22.99,2.22,2.22s-.99,2.22-2.22,2.22-2.22-.99-2.22-2.22.99-2.22,2.22-2.22ZM18.11,25.48c.39-.65,1.35-.93,2.19-.63,12.7,4.53,26.7,4.53,39.4,0,.83-.3,1.8-.02,2.19.63.38.63.3,1.18.18,1.53-.18.49-.56.88-1.05,1.05l-9.52,3.39c-1.97.7-3.59,2.21-4.44,4.12-.85,1.91-.88,4.12-.07,6.06l5.47,13.17c.2.48.17,1.02-.07,1.49-.18.33-.54.76-1.25.9-.74.15-1.6-.38-1.94-1.2l-2.86-6.88c-1.06-2.56-3.55-4.22-6.32-4.22s-5.26,1.66-6.32,4.22l-2.92,7.03c-.25.6-.72.86-.98.96-.26.1-.78.22-1.38-.06-.79-.38-1.12-1.57-.71-2.55l5.33-12.85c.81-1.93.78-4.14-.07-6.06-.85-1.92-2.47-3.42-4.44-4.12l-9.52-3.39c-.49-.17-.88-.56-1.05-1.05-.13-.35-.2-.91.18-1.53Z"/>
 <path fill="#000" d="M68.18,43.73c-2.18-1.1-4.83-.21-5.92,1.97-1.09,2.18-.21,4.83,1.97,5.92,4.45,2.23,7.1,4.98,7.1,7.35,0,4.98-12.2,12.2-31.33,12.2s-31.33-7.23-31.33-12.2c0-2.37,2.66-5.12,7.1-7.35,2.18-1.09,3.06-3.74,1.97-5.92-1.09-2.18-3.74-3.06-5.92-1.97C4.1,47.6-.16,53.01-.16,58.97c0,11.99,17.26,21.03,40.16,21.03s40.16-9.04,40.16-21.03c0-5.96-4.25-11.37-11.98-15.24Z"/>
</svg>
