<?xml version="1.0" encoding="utf-8"?>
 <svg version="1.1" xmlns="http://www.w3.org/2000/svg" xmlns:xlink="http://www.w3.org/1999/xlink" viewBox="0 0 118.7 118.7">
	<path d="M105,22.8l-1.6-0.6c0,0.6,0.1,1.3,0.1,1.9l-1.7,46.3l11.4-28.2C116.3,34.6,112.6,25.9,105,22.8z"/>
	<path d="M97.9,57.9L99.1,24c0-1.2-0.1-2.5-0.3-3.6c-1.4-6.5-7-11.5-14-11.8l-2.9-0.1C81.9,8.7,82,8.8,82.1,9L97.9,57.9z"/>
	<path d="M99.3,76.3l-1.9-5.9L78,10.3c-0.2-0.7-0.5-1.4-0.9-2c-3.2-6.5-10.8-9.8-17.9-7.5L40.1,6.9l-12.9,4.2l-12.4,4	C7,17.7,2.7,26.1,5.2,33.9L18,73.4l2.5,7.8l8.8,27.2c0.8,2.6,2.3,4.8,4.2,6.5c3.8,3.4,9.3,4.8,14.6,3.1l2.1-0.7l5-1.6l37.3-12.1	c1.4-0.5,2.6-1.1,3.8-1.9c5.3-3.6,7.9-10.4,5.8-16.9L99.3,76.3z"/>
</svg>
