<?xml version="1.0" encoding="UTF-8" standalone="no"?>
<svg
   version="1.1"
   viewBox="0 0 20 20"
   id="svg104"
   xmlns="http://www.w3.org/2000/svg"
   xmlns:svg="http://www.w3.org/2000/svg">
  <defs
     id="defs108" />
  <path
     fill="#000000"
     fill-rule="evenodd"
     d="m 16.104885,0.45911877 c 0.414214,0 0.75,0.33578643 0.75,0.75000003 v 2 h 2 c 1,0 1,1.5 0,1.5 h -2 v 2 c 0,0.9999995 -1.5,0.9999995 -1.5,0 v -2 h -2 c -0.999999,0 -0.999999,-1.5 0,-1.5 h 2 v -2 c 0,-0.4142136 0.335787,-0.75000003 0.75,-0.75000003 M 2.5,11 C 2.4998757,7.1466615 5.8329417,4.0348045 9.666,4.4296235 10.661333,4.5309568 10.813333,3.1423333 9.818,3.041 2.3269962,2.2710478 -1.9799996,11.332546 3.3440536,16.655853 8.6681068,21.979161 17.729001,17.670896 16.958,10.18 16.839831,9.2061922 15.385363,9.3543685 15.466,10.332 15.48797,10.553998 15.49932,10.776919 15.5,11 15.5,14.589853 12.589851,17.499997 9,17.499997 5.4101492,17.499997 2.5,14.589853 2.5,11 m 4.25,-0.771312 c 1.6666659,0 1.6666659,-2.4999999 0,-2.4999999 -1.6666659,0 -1.6666659,2.4999999 0,2.4999999 m 4.5,0 c 1.666666,0 1.666666,-2.4999999 0,-2.4999999 -1.6666659,0 -1.6666659,2.4999999 0,2.4999999 M 9,15 c 1.277,0 2.329659,-0.620674 2.836659,-2.069674 0.148,-0.426 0.0074,-0.732312 -0.443592,-0.734188 L 6.6129066,12.176256 C 6.1609105,12.174376 5.9745588,12.505259 6.1225588,12.932259 6.6305588,14.381259 7.724,15 9,15"
     clip-rule="evenodd"
     id="path102" />
</svg>
