<?xml version="1.0" encoding="UTF-8"?>
<svg xmlns="http://www.w3.org/2000/svg" version="1.1" viewBox="0 0 118.7 118.7">
 <path fill="#FFF" d="M59.4,0C26.6,0,0,26.6,0,59.4s26.6,59.4,59.4,59.4,59.4-26.6,59.4-59.4S92.1,0,59.4,0ZM59.4,104.7c-25,0-45.4-20.4-45.4-45.4S34.4,14,59.4,14s45.4,20.4,45.4,45.4-20.4,45.4-45.4,45.4Z"/>
 <path fill="#FFF" d="M54.3,49.2c0-5.9-4.8-10.7-10.7-10.7s-10.7,4.8-10.7,10.7,4.8,10.7,10.7,10.7,10.7-4.8,10.7-10.7Z"/>
 <path fill="#FFF" d="M74.8,38.5c-5.9,0-10.7,4.8-10.7,10.7s4.8,10.7,10.7,10.7,10.7-4.8,10.7-10.7-4.8-10.7-10.7-10.7Z"/>
 <path fill="#FFF" d="M59.4,87c10.6,0,19.6-7.2,22.3-17h-44.6c2.7,9.8,11.7,17,22.3,17Z"/>
</svg>
