<?xml version="1.0" encoding="UTF-8"?>
<svg xmlns="http://www.w3.org/2000/svg" version="1.1" viewBox="0 0 80 80">
 <path fill="#000" d="M42.97,71.38v-9.01H15.39V9.04h27.94v4.1c0,4.73,3.84,8.57,8.57,8.57h4.11v27.61h9.02s.01,0,.02,0V15.33L49.72,0H14.92C10.19,0,6.35,3.84,6.35,8.57v54.27c0,4.73,3.84,8.57,8.57,8.57h28.05s0-.02,0-.03Z"/>
 <polygon fill="#000" points="64.51 62.8 64.51 53.67 56.45 53.67 56.45 62.8 47.31 62.8 47.31 70.86 56.45 70.86 56.45 80 64.51 80 64.51 70.86 73.65 70.86 73.65 62.8 64.51 62.8"/>
</svg>
