<?xml version="1.0" encoding="utf-8"?>
<svg version="1.1" xmlns="http://www.w3.org/2000/svg" xmlns:xlink="http://www.w3.org/1999/xlink" viewBox="0 0 118.7 118.7">
	<path d="M82.7,0H24.8C17,0,10.6,6.4,10.6,14.3v90.2c0,7.9,6.4,14.3,14.3,14.3h69.1c7.9,0,14.3-6.4,14.3-14.3v-79L82.7,0z M93.1,103.7H25.6V15h46.5v6.8c0,7.9,6.4,14.3,14.3,14.3h6.8C93.1,36.1,93.1,103.7,93.1,103.7z"/>
	<polygon points="35.1,78.8 35.1,94.5 73.6,94.5 46.5,67.4 	"/>
	<polygon points="64.6,74 83.1,92.4 83.1,79.3 71.2,67.4 	"/>
</svg>
