<?xml version="1.0" encoding="UTF-8"?>
<svg xmlns="http://www.w3.org/2000/svg" version="1.1" viewBox="0 0 283.46 283.46">
 <path fill="#000" d="M0,77.38l76.98-32.28,6.82,21.65-56.13,21.85,56.13,21.85-6.82,21.65L0,99.63v-22.25Z"/>
 <path fill="#000" d="M126.3,173.21h-25.66L156.78,0h25.24l-55.73,173.21Z"/>
 <path fill="#000" d="M283.46,99.83l-76.98,32.48-7.02-21.65,56.33-21.85-56.33-21.85,7.02-21.65,76.98,32.28v22.25Z"/>
 <path fill="#000" d="M60.69,191.84v91.63h-18.21v-40.41h-24.28v40.41H0v-91.63h18.21v36.12h24.28v-36.12h18.21Z"/>
 <path fill="#000" d="M137.66,191.84v15.1h-24.13v76.53h-18.35v-76.53h-24.13v-15.1h66.61Z"/>
 <path fill="#000" d="M165.19,191.84c.69,2.07,1.55,4.74,2.59,7.99,1.04,3.26,2.15,6.76,3.33,10.51,1.18,3.75,2.37,7.55,3.55,11.4,1.18,3.85,2.32,7.4,3.4,10.66,1.18-3.65,2.42-7.42,3.7-11.32,1.28-3.9,2.52-7.65,3.7-11.25,1.18-3.6,2.27-6.98,3.26-10.14.99-3.16,1.87-5.77,2.66-7.85h15.1c.69,7.99,1.36,15.79,2,23.39.64,7.6,1.18,15.12,1.63,22.57.44,7.45.81,14.95,1.11,22.5.3,7.55.54,15.27.74,23.17h-16.73l.89-71.2-11.25,38.78h-13.32l-10.8-38.78.74,71.2h-16.73c.3-7.5.62-15.3.96-23.39.34-8.09.72-16.13,1.11-24.13.39-7.99.86-15.74,1.41-23.24.54-7.5,1.16-14.46,1.85-20.87h15.1Z"/>
 <path fill="#000" d="M283.46,283.46h-57.58v-91.63h18.35v76.53h39.23v15.1Z"/>
</svg>
