<?xml version="1.0" encoding="UTF-8"?>
<svg xmlns="http://www.w3.org/2000/svg" version="1.1" viewBox="0 0 118.7 118.7">
 <path d="M94.2,14.4C84.9,5.1,72.5,0,59.4,0s-25.5,5.1-34.8,14.4-14.4,21.6-14.4,34.8,5.1,25.5,14.4,34.8l34.8,34.8,34.8-34.8c19.2-19.2,19.2-50.4,0-69.6ZM86.5,76.3l-27.1,27.1-27.1-27.1c-15-15-15-39.3,0-54.3,7.5-7.5,17.3-11.2,27.1-11.2s19.6,3.7,27.1,11.2c7.2,7.2,11.2,16.9,11.2,27.1s-4,19.9-11.2,27.1Z"/>
 <path d="M59.4,40.8c-4.6,0-8.3,3.7-8.3,8.3s3.7,8.3,8.3,8.3,8.3-3.7,8.3-8.3-3.7-8.3-8.3-8.3Z"/>
</svg>
