<svg version="1.1" id="Layer_1" xmlns="http://www.w3.org/2000/svg" xmlns:xlink="http://www.w3.org/1999/xlink" x="0px" y="0px"
     width="100%" viewBox="0 0 1024 1024" enable-background="new 0 0 1024 1024" xml:space="preserve">
<path fill="#000000" opacity="1.000000" stroke="none"
      d="
M608.043335,498.956696
	C531.910217,422.833771 456.031158,346.956909 380.143860,271.088257
	C370.393341,261.340179 370.108917,261.327515 371.768921,247.783340
	C376.027405,213.037582 389.728088,182.869537 415.935211,159.032715
	C437.755219,139.186264 463.268250,127.145073 492.618408,123.570427
	C538.336914,118.002228 578.368896,130.591965 611.740112,162.392029
	C635.038147,184.593201 648.448608,212.243698 653.458191,244.039703
	C654.887878,253.113480 655.385925,262.187378 655.378662,271.351501
	C655.321899,343.003632 655.371399,414.655884 655.326599,486.308044
	C655.317261,501.262451 652.296753,515.685059 646.929626,529.621216
	C646.342773,531.145142 645.969116,532.841064 643.665344,534.514771
	C631.956665,522.826355 620.125671,511.015839 608.043335,498.956696
z"/>
 <path fill="#000000" opacity="1.000000" stroke="none"
       d="
M161.687988,157.116425
	C167.337021,137.949478 180.867004,129.674240 199.290268,133.762192
	C203.602768,134.719101 207.306946,136.708664 210.496628,139.908722
	C262.488739,192.069733 314.508301,244.203400 366.566986,296.297974
	C424.862488,354.633667 483.179779,412.947540 541.530090,471.228363
	C636.793335,566.377991 732.083984,661.500122 827.384827,756.612122
	C836.804688,766.013245 839.208801,777.073792 835.479675,789.598145
	C832.055725,801.097412 824.237793,807.938477 812.446350,809.753845
	C803.837280,811.079285 795.851990,809.234741 789.458435,802.825378
	C765.099548,778.406189 740.837524,753.890137 716.415955,729.533936
	C679.249573,692.466980 641.930603,655.552979 604.765198,618.485046
	C526.068115,539.994324 447.411835,461.462677 368.771149,382.915466
	C317.367188,331.572662 266.021729,280.171265 214.646210,228.799973
	C199.799118,213.954086 185.017136,199.041794 170.052017,184.315720
	C162.408386,176.794174 159.581894,167.991791 161.687988,157.116425
z"/>
 <path fill="#000000" opacity="1.000000" stroke="none"
       d="
M679.964966,842.143188
	C686.641541,851.660217 688.011353,862.135498 687.189758,872.949402
	C686.498352,882.049744 679.880615,887.359741 669.958740,887.363708
	C602.803955,887.390442 535.649170,887.395386 468.494354,887.400085
	C432.167450,887.402649 395.840576,887.393738 359.513672,887.384521
	C343.905731,887.380554 339.102448,883.262756 338.188171,867.723694
	C337.008209,847.669189 347.802032,832.484131 366.724579,828.240356
	C368.966064,827.737671 371.342896,827.685730 373.657227,827.683716
	C408.817657,827.652893 443.978119,827.669312 479.138580,827.664307
	C486.162842,827.663269 486.795319,827.052063 486.806458,819.926636
	C486.858826,786.432922 486.813110,752.938843 486.998474,719.445923
	C487.024933,714.671631 485.498535,712.902405 480.628021,712.155518
	C426.736206,703.891052 379.423035,681.809631 340.721680,643.058289
	C305.559113,607.850220 284.000092,565.414795 276.530212,516.023743
	C274.262421,501.029144 273.150330,486.074249 274.390259,470.838165
	C275.360352,458.917664 274.557953,446.857758 274.665314,434.860870
	C274.775787,422.516235 284.054382,413.047333 296.398590,412.715302
	C299.865723,412.622040 303.362457,412.252960 306.829132,413.209076
	C319.764496,416.776733 326.083588,424.822998 326.167908,438.209229
	C326.258118,452.539551 326.376373,466.871643 326.252838,481.200989
	C325.974976,513.436157 335.405731,542.957642 352.103577,570.089111
	C382.128204,618.874817 425.938904,648.427979 481.908203,659.315247
	C519.796692,666.685425 556.696289,661.847290 592.049133,646.103394
	C594.009033,645.230591 595.673218,644.104248 597.808167,646.274353
	C609.259583,657.914307 620.863159,669.404541 632.391907,680.968628
	C632.823425,681.401428 633.026245,682.062195 633.476562,682.869385
	C627.778931,687.534912 621.326721,690.601074 614.903381,693.651733
	C594.757324,703.219666 573.483948,708.964661 551.495178,712.407654
	C538.092407,714.506165 538.269531,711.532593 538.320801,727.426025
	C538.421265,758.586914 538.358582,789.748230 538.377319,820.909363
	C538.381104,827.242737 538.736633,827.637024 545.246521,827.642639
	C580.240356,827.673157 615.234436,827.583801 650.227783,827.713440
	C662.183777,827.757751 672.264099,832.221375 679.964966,842.143188
z"/>
 <path fill="#000000" opacity="1.000000" stroke="none"
       d="
M441.195770,599.909058
	C410.252380,581.125000 388.361633,555.361389 377.391266,521.021545
	C371.626343,502.976074 369.826935,484.391724 371.345612,465.387146
	C372.219147,454.455719 371.686096,443.412323 371.802948,432.419495
	C371.823425,430.492279 371.488373,428.498718 372.164215,427.073761
	C434.069244,489.208099 495.889954,551.257874 557.892700,613.490234
	C517.834229,626.157715 478.894897,620.640381 441.195770,599.909058
z"/>
 <path fill="#000000" opacity="1.000000" stroke="none"
       d="
M753.348145,489.986389
	C752.044067,532.582581 738.636169,570.698975 715.941040,606.413086
	C714.163818,604.860535 712.995483,603.949768 711.953247,602.912292
	C701.329529,592.337463 690.782837,581.684448 680.074524,571.196350
	C677.656372,568.827942 677.199890,566.905457 678.974426,563.857361
	C690.854065,543.451111 698.016785,521.375122 700.426758,497.963409
	C702.457153,478.239166 701.618652,458.373505 701.636841,438.562897
	C701.648621,425.768280 706.305115,418.621124 717.192139,414.701172
	C728.364929,410.678253 741.426086,413.663208 748.325745,421.849121
	C751.648376,425.791229 753.462952,430.176819 753.412415,435.526672
	C753.242493,453.512756 753.348083,471.501434 753.348145,489.986389
z"/>
</svg>
