<?xml version="1.0" encoding="UTF-8"?>
<svg xmlns="http://www.w3.org/2000/svg" version="1.1" viewBox="0 0 100 100">
 <path fill="#000" d="M37.51,62.49c-.1-.49-.15-1.22-.15-2.19,0-3.89,1.02-7.62,3.07-11.18,2.05-3.55,4.72-6.69,8.03-9.42,2.24-1.85,4.33-3.82,6.28-5.92,1.95-2.09,2.92-4.36,2.92-6.79,0-2.92-1.02-5.14-3.07-6.65-2.04-1.51-4.63-2.26-7.74-2.26s-6.14.46-9.06,1.39c-2.92.93-6.09,2.22-9.5,3.87l-4.97-13.73c3.41-2.14,7.4-3.8,11.98-4.97,4.58-1.17,9.11-1.75,13.59-1.75,5.55,0,10.13.76,13.73,2.26,3.6,1.51,6.43,3.39,8.47,5.62,2.05,2.24,3.48,4.7,4.31,7.38.83,2.68,1.24,5.24,1.24,7.67,0,2.83-.56,5.41-1.68,7.74-1.12,2.34-2.53,4.53-4.24,6.57-1.71,2.05-3.53,3.97-5.48,5.77-1.95,1.8-3.78,3.58-5.48,5.33-1.71,1.75-3.12,3.56-4.24,5.41-1.12,1.85-1.68,3.8-1.68,5.84h-16.36ZM58.98,84.99c0,3.8-1.24,6.77-3.73,8.91s-5.28,3.21-8.4,3.21c-1.56,0-3.07-.27-4.53-.8-1.46-.54-2.78-1.34-3.94-2.41-1.17-1.07-2.1-2.34-2.78-3.8-.68-1.46-1.02-3.16-1.02-5.11,0-1.85.34-3.53,1.02-5.04.68-1.51,1.61-2.78,2.78-3.8s2.48-1.8,3.94-2.34c1.46-.53,2.97-.8,4.53-.8s3.07.27,4.53.8c1.46.54,2.75,1.31,3.87,2.34,1.12,1.02,2.02,2.29,2.7,3.8.68,1.51,1.02,3.19,1.02,5.04Z"/>
</svg>
