<?xml version="1.0" encoding="utf-8"?>
<svg version="1.1" xmlns="http://www.w3.org/2000/svg" xmlns:xlink="http://www.w3.org/1999/xlink" viewBox="0 0 118.7 118.7">
 <path fill="#fff" d="M101.4,17.4C90.1,6.2,75.2,0,59.4,0s-30.8,6.2-42,17.4S0,43.5,0,59.4s6.2,30.8,17.4,42s26.1,17.4,42,17.4s30.8-6.2,42-17.4	s17.4-26.1,17.4-42S112.6,28.6,101.4,17.4z M106,53.2H89c-0.6-12.8-3.2-24.6-7.3-34c-0.3-0.6-0.5-1.2-0.8-1.7	C94.3,24.5,104,37.7,106,53.2z M59.4,106.4c-3.6,0-7.8-4.6-11.1-11.9c-3.5-7.8-5.6-18-6.2-29h34.6c-0.6,11-2.7,21.1-6.2,29	C67.2,101.9,62.9,106.4,59.4,106.4z M42.1,53.2c0.6-11,2.7-21.1,6.2-29c3.3-7.4,7.5-11.9,11.1-11.9c3.6,0,7.8,4.6,11.1,11.9	c3.5,7.8,5.6,18,6.2,29H42.1z M37.8,17.5c-0.3,0.6-0.5,1.1-0.8,1.7c-4.1,9.3-6.7,21.2-7.3,34h-17C14.8,37.7,24.4,24.5,37.8,17.5z	 M12.7,65.5h17c0.6,12.8,3.2,24.6,7.3,34c0.3,0.6,0.5,1.2,0.8,1.7C24.4,94.3,14.8,81.1,12.7,65.5z M80.9,101.2	c0.3-0.6,0.5-1.1,0.8-1.7c4.1-9.3,6.7-21.2,7.3-34h17C104,81.1,94.3,94.3,80.9,101.2z"/>
</svg>
