<?xml version="1.0" encoding="UTF-8" standalone="no"?>
<svg
   version="1.1"
   x="0px"
   y="0px"
   viewBox="0 0 118.7 118.7"
   style="enable-background:new 0 0 118.7 118.7;"
   id="svg6"
   sodipodi:docname="iframes.svg"
   inkscape:version="1.1.2 (0a00cf5339, 2022-02-04)"
   xmlns:inkscape="http://www.inkscape.org/namespaces/inkscape"
   xmlns:sodipodi="http://sodipodi.sourceforge.net/DTD/sodipodi-0.dtd"
   xmlns="http://www.w3.org/2000/svg"
   xmlns:svg="http://www.w3.org/2000/svg">
  <defs
     id="defs10" />
  <sodipodi:namedview
     id="namedview8"
     pagecolor="#ffffff"
     bordercolor="#666666"
     borderopacity="1.0"
     inkscape:pageshadow="2"
     inkscape:pageopacity="0.0"
     inkscape:pagecheckerboard="0"
     showgrid="false"
     inkscape:zoom="3.1572587"
     inkscape:cx="40.224769"
     inkscape:cy="53.844179"
     inkscape:window-width="1280"
     inkscape:window-height="698"
     inkscape:window-x="1920"
     inkscape:window-y="1080"
     inkscape:window-maximized="1"
     inkscape:current-layer="svg6" />
  <path
     fill="#ffdd11"
     d="m 112.7425,30.384392 c 6.51648,-0.896165 -1.45137,-8.18489 -3.89982,-10.024758 C 98.510146,12.0548 86.366187,5.5511456 73.479201,5.5743837 59.874386,4.8966743 46.143302,4.7383162 32.633201,6.8620398 22.046303,9.150209 10.490285,14.893165 5.993823,26.828569 4.3114479,33.149383 4.023258,39.936419 4.122474,46.510032 c 1.3526756,21.600312 2.5671516,43.214811 4.0071292,64.806178 1.3271528,8.39278 6.1126208,-2.65053 6.8255658,-5.97452 2.142282,-7.238586 4.705222,-14.850285 3.984485,-22.594139 -3.323296,-2.025693 0.442899,-1.319303 2.50635,-2.393715 5.540532,-1.580238 11.081064,-3.160476 16.621595,-4.740714 -1.605401,12.430779 -3.210804,24.861558 -4.816205,37.292338 -6.374986,-0.49115 -8.773597,-9.29906 -4.869649,-14.544755 6.710092,-10.906169 19.228507,-14.571432 30.406027,-14.544475 -0.20898,9.690511 -0.417957,19.38102 -0.626935,29.07153 1.981912,1.6478 4.374164,-6.59347 6.10673,-8.92283 3.893011,-7.064919 7.029207,-15.128748 12.858651,-20.440602 2.190409,-1.39681 2.401349,3.071866 3.605008,4.543759 4.053338,8.804924 8.106676,17.609853 12.160013,26.414773 8.236391,-0.61807 12.582911,-10.13242 14.659151,-18.08837 3.43601,-12.37247 3.62425,-25.453779 5.37718,-38.167205 -6.26536,-2.613113 -11.14824,-10.348105 -9.0776,-18.053554 1.08043,-4.63482 4.31246,-9.618666 8.89253,-9.789339 z m -8.05156,27.179966 c -4.12664,2.062007 -9.295951,3.149941 -13.239842,6.283457 -5.480294,2.290777 -4.764437,11.377863 -10.475379,12.799779 -3.658271,2.346151 -3.760319,-1.464246 -4.240163,-4.373299 -1.08212,-5.705518 -2.164238,-11.411033 -3.246358,-17.116547 -5.713923,2.051436 -8.208553,9.35151 -11.189504,14.678539 -1.510329,2.170462 -3.952636,11.744647 -3.686601,4.735569 -0.268011,-2.62613 0.02068,-5.391555 -0.7202,-7.901029 -4.869997,-0.450487 -9.780131,3.455697 -14.92232,3.497061 -8.991796,1.263347 -18.103305,-0.101493 -26.856337,-2.515669 -0.590123,-5.815468 -3.041571,-11.163363 -3.923981,-16.738398 -1.04515,-4.411422 0.494152,-5.942744 4.084514,-5.126173 2.596032,0.233591 6.283928,0.313096 6.183834,-3.847655 0.351122,-8.084927 0.595972,-16.889312 4.836974,-23.774563 2.855993,-4.177971 9.109108,-7.194351 13.106917,-5.785993 0.885396,2.547579 1.770792,5.095158 2.656188,7.642738 12.671811,-1.020847 24.185844,-10.5042895 37.19231,-7.972247 5.300955,0.415817 10.611424,4.229016 11.631505,10.468796 1.25759,5.596474 2.89468,12.362777 -2.01221,16.438611 -4.713746,3.586497 -6.763438,12.191009 0.253195,14.170024 4.632442,2.271456 9.630891,3.389444 14.567458,4.436999 z"
     id="path2"
     style="stroke-width:0.783273"
     sodipodi:nodetypes="scccccscscccscsccccssccccscccccscccccccc" />
</svg>
