<?xml version="1.0" encoding="UTF-8"?>
<svg xmlns="http://www.w3.org/2000/svg" version="1.1" viewBox="0 0 118.7 118.7">
 <path d="M53.7,53.5c14.8,0,26.8-12,26.8-26.8S68.5,0,53.7,0s-26.8,12-26.8,26.8c0,14.8,12,26.8,26.8,26.8ZM53.7,14.4c6.8,0,12.3,5.5,12.3,12.3s-5.5,12.3-12.3,12.3-12.3-5.5-12.3-12.3,5.5-12.3,12.3-12.3Z"/>
 <path d="M54.1,73.4c5,0,9.7,1.2,13.9,3.4,2.8-2.7,6.6-4.6,10.8-5.1h.1c2-.2,4-.4,6-.5-8-7.6-18.9-12.3-30.8-12.3-24.8,0-44.8,20.1-44.8,44.8h52.8c-.3-4.8-.2-9.6.3-14.4H27.3c5.2-9.5,15.2-16,26.8-16Z"/>
 <polygon points="95.3 92 95.3 77.9 82.8 77.9 82.8 92 68.6 92 68.6 104.6 82.8 104.6 82.8 118.7 95.3 118.7 95.3 104.6 109.5 104.6 109.5 92 95.3 92"/>
</svg>
