<?xml version="1.0" encoding="UTF-8"?>
<svg xmlns="http://www.w3.org/2000/svg" version="1.1" viewBox="0 0 80 80">
	<path fill="#000" d="M32.03,30.45c0,3.44,2.79,6.23,6.23,6.23s6.23-2.79,6.23-6.23-2.79-6.23-6.23-6.23-6.23,2.79-6.23,6.23Z"/>
	<path fill="#000" d="M12.25,56.19h-.05v-3.67H0v8.13h4.54c2.09,10.87,11.68,19.12,23.15,19.12h23.96v-8.13h-23.96c-8.52,0-15.45-6.93-15.45-15.45Z"/>
	<path fill="#000" d="M12.19,23.68h.05c0-8.52,6.93-15.45,15.45-15.45h21.14c8.52,0,15.45,6.93,15.45,15.45v26.06h8.13v-26.06C72.41,10.68,61.83.1,48.83.1h-21.14C16.23.1,6.65,8.33,4.55,19.19H0v8.13h12.19v-3.64Z"/>
	<rect fill="#000" x="0" y="35.87" width="12.19" height="8.13"/>
	<path fill="#000" d="M38.26,39.98c-7.86,0-14.26,6.4-14.26,14.26h8.13c0-3.38,2.75-6.13,6.13-6.13s6.13,2.75,6.13,6.13h8.13c0-7.86-6.4-14.26-14.26-14.26Z"/>
	<polygon fill="#000" points="71.82 64.49 71.82 56.31 64.59 56.31 64.59 64.49 56.41 64.49 56.41 71.71 64.59 71.71 64.59 79.9 71.82 79.9 71.82 71.71 80 71.71 80 64.49 71.82 64.49"/>
</svg>
