<?xml version="1.0" encoding="UTF-8"?>
<svg xmlns="http://www.w3.org/2000/svg" version="1.1" viewBox="0 0 80 80">
	<path fill="#000" d="M50.25,25.24l9.42-18.47c.92-1.8.57-3.99-.87-5.42-1.43-1.43-3.62-1.77-5.42-.83l-12.82,6.63L27.75.52c-1.8-.93-3.99-.59-5.42.83-1.43,1.43-1.78,3.62-.87,5.42l9.42,18.47C15.82,29.48,4.74,43.33,4.74,59.73c0,11.18,9.09,20.27,20.27,20.27h31.11c11.18,0,20.27-9.09,20.27-20.27,0-16.4-11.08-30.25-26.14-34.49ZM38.43,16.53c1.34.69,2.94.69,4.28,0l2.08-1.08-4.22,8.28-4.22-8.28,2.08,1.08ZM56.12,70.69h-31.11c-6.04,0-10.96-4.92-10.96-10.96,0-14.62,11.89-26.52,26.52-26.52s26.52,11.89,26.52,26.52c0,6.04-4.92,10.96-10.96,10.96Z"/>
</svg>
