<?xml version="1.0" encoding="UTF-8"?>
<svg xmlns="http://www.w3.org/2000/svg" version="1.1" viewBox="0 0 118.7 118.7">
 <path d="M59.4,66c-27.9,0-50.4-6.2-50.4-13.9v22.3c0,7.7,22.6,13.9,50.4,13.9s50.4-6.2,50.4-13.9v-22.3c0,7.7-22.6,13.9-50.4,13.9Z"/>
 <path d="M59.4,96.5c-27.9,0-50.4-6.2-50.4-13.9v22.3c0,7.7,22.6,13.9,50.4,13.9s50.4-6.2,50.4-13.9v-22.3c0,7.7-22.6,13.9-50.4,13.9Z"/>
 <path d="M59.4,35.5c-27.9,0-50.4-6.2-50.4-13.9v22.3c0,7.7,22.6,13.9,50.4,13.9s50.4-6.2,50.4-13.9v-22.3c0,7.7-22.6,13.9-50.4,13.9Z"/>
 <path d="M59.4,26.9c27.3,0,49.6-6,50.3-13.5-.8-7.5-23-13.5-50.3-13.5S9.8,6,9,13.5c.8,7.5,23,13.5,50.3,13.5Z"/>
</svg>
