<?xml version="1.0" encoding="UTF-8"?>
<svg xmlns="http://www.w3.org/2000/svg" version="1.1" viewBox="0 0 118.7 118.7">
 <path fill="#000" d="M112.3,0H27c-3.6,0-6.5,2.9-6.5,6.5v95.5c0,2.1-1.8,3.8-3.8,3.8s-3.8-1.8-3.8-3.8V18.1H0v83.9C0,111.2,7.5,118.7,16.7,118.7h84.9c9.5,0,17.2-7.7,17.2-17.2V6.4c0-3.6-2.9-6.4-6.5-6.4ZM105.8,101.6c0,2.3-1.9,4.2-4.2,4.2H33c0,0,0-.1,0-.2,0-.4.1-.8.2-1.2,0-.2,0-.3,0-.5,0-.6,0-1.2,0-1.9V12.9h72.3v88.7h0Z"/>
 <rect fill="#000" x="47.2" y="29" width="45.5" height="7.5"/>
 <rect fill="#000" x="47.2" y="55.6" width="45.5" height="7.5"/>
 <rect fill="#000" x="70" y="82.1" width="22.8" height="7.5"/>
</svg>