<?xml version="1.0" encoding="UTF-8"?>
<svg xmlns="http://www.w3.org/2000/svg" version="1.1" viewBox="0 0 80 80">
 <path fill="#000" d="M40.64,24.92c-2.41,0-4.36,1.95-4.36,4.36v14.46c0,2.41,1.95,4.36,4.36,4.36h14.46c2.41,0,4.36-1.95,4.36-4.36s-1.95-4.36-4.36-4.36h-10.1v-10.1c0-2.41-1.95-4.36-4.36-4.36Z"/>
 <path fill="#000" d="M43.12,3.13C24.55,3.13,9.15,16.93,6.62,34.81c-1.7-1.04-3.95-.81-5.4.68-1.67,1.73-1.62,4.49.1,6.16l6.79,6.56c.85.82,1.94,1.22,3.03,1.22s2.28-.44,3.13-1.33l6.56-6.79c1.67-1.73,1.62-4.49-.1-6.16-1.44-1.39-3.6-1.58-5.24-.6,2.54-12.94,13.96-22.73,27.63-22.73,15.53,0,28.16,12.63,28.16,28.16s-12.63,28.16-28.16,28.16c-5.64,0-11.09-1.66-15.74-4.81-1.99-1.34-4.7-.82-6.05,1.17-1.35,1.99-.82,4.7,1.17,6.05,6.1,4.12,13.23,6.3,20.62,6.3,20.33,0,36.88-16.54,36.88-36.87S63.46,3.13,43.12,3.13Z"/>
</svg>
