<?xml version="1.0" encoding="utf-8"?>
<!-- Generator: Adobe Illustrator 27.9.0, SVG Export Plug-In . SVG Version: 6.00 Build 0)  -->
<svg version="1.1" id="Vrstva_1" xmlns="http://www.w3.org/2000/svg" xmlns:xlink="http://www.w3.org/1999/xlink" x="0px" y="0px"
	 viewBox="0 0 118.74 118.74" style="enable-background:new 0 0 118.74 118.74;" xml:space="preserve">
<style type="text/css">
	.st0{fill:url(#SVGID_1_);}
	.st1{fill:#0E101F;}
	.st2{fill:#FCD213;}
	.st3{fill:#010202;}
	.st4{fill:none;stroke:#000000;stroke-width:7;stroke-miterlimit:10;}
	.st5{fill:#FDD213;}
	.st6{fill:#6BB42D;}
	.st7{fill:#E83C3D;}
	.st8{fill:#F8F9FA;}
</style>
<g>
</g>
<g>
	<path class="st2" d="M26.18,2.95C14.36,5.12,5.12,14.36,2.95,26.18C1.04,36.62,0,47.78,0,59.37s1.04,22.75,2.95,33.19
		c2.17,11.81,11.41,21.05,23.22,23.22c10.44,1.92,21.6,2.95,33.19,2.95s22.75-1.04,33.19-2.95c11.81-2.17,21.05-11.41,23.22-23.22
		c1.92-10.44,2.95-21.6,2.95-33.19c0-11.61-1.04-22.78-2.96-33.23C113.61,14.35,104.39,5.13,92.6,2.96C82.15,1.04,70.98,0,59.37,0
		C47.78,0,36.62,1.04,26.18,2.95z"/>
	<g>
		<path d="M59.37,37.37c-14.07,0-26.38,8.72-31.15,21.64c-0.72,1.95,0.45,4.1,2.47,4.59h0c1.72,0.42,3.48-0.51,4.1-2.17
			c3.77-10.18,13.48-17.05,24.58-17.05s20.81,6.87,24.58,17.05c0.62,1.66,2.38,2.59,4.1,2.17l0,0c2.02-0.49,3.19-2.64,2.47-4.59
			C85.75,46.09,73.44,37.37,59.37,37.37z"/>
		<path d="M63.21,52.91c0-2.12-1.72-3.84-3.84-3.84c-2.12,0-3.84,1.72-3.84,3.84c0,2.12,1.72,3.84,3.84,3.84
			C61.49,56.76,63.21,55.03,63.21,52.91z"/>
		<path d="M40.75,63.55c-2.12,0-3.84,1.72-3.84,3.84s1.72,3.84,3.84,3.84s3.84-1.72,3.84-3.84S42.87,63.55,40.75,63.55z"/>
		<path d="M47.58,53.42c-2.12,0-3.84,1.72-3.84,3.84c0,2.12,1.72,3.84,3.84,3.84c2.12,0,3.84-1.72,3.84-3.84
			C51.43,55.15,49.71,53.42,47.58,53.42z"/>
		<path d="M77.82,63.55c-2.12,0-3.84,1.72-3.84,3.84s1.72,3.84,3.84,3.84c2.12,0,3.84-1.72,3.84-3.84S79.94,63.55,77.82,63.55z"/>
		<path d="M72.57,54.73L72.57,54.73c-1.59-1.1-3.77-0.7-4.87,0.89L59.44,67.6c-0.02,0-0.05,0-0.07,0c-3.84,0-6.94,3.14-6.89,6.99
			c0.05,3.66,3.13,6.74,6.79,6.79c3.85,0.05,6.99-3.05,6.99-6.89c0-1.18-0.3-2.28-0.82-3.25l8.03-11.63
			C74.56,58.01,74.16,55.83,72.57,54.73z"/>
	</g>
</g>
</svg>
