<?xml version="1.0" encoding="UTF-8"?>
<svg xmlns="http://www.w3.org/2000/svg" version="1.1" viewBox="0 0 80 80">
 <path fill="#000" d="M47.53,59.85v-9.43c0-.19.15-.34.34-.34h14.45v-6.4h-2.51v-5.23h15.92v-6.4h-34.66v-5.23h5.54c3.72,0,6.74-3.02,6.74-6.74v-9.43c0-3.72-3.02-6.74-6.74-6.74h-17.48c-3.72,0-6.74,3.02-6.74,6.74v9.43c0,3.72,3.02,6.74,6.74,6.74h5.54v5.23H0v6.4h16.49v5.23h-5.54c-3.72,0-6.74,3.02-6.74,6.74v9.43c0,3.72,3.02,6.74,6.74,6.74h17.48c3.72,0,6.74-3.02,6.74-6.74v-9.43c0-3.72-3.02-6.74-6.74-6.74h-5.54v-5.23h30.52v5.23h-5.54c-3.72,0-6.74,3.02-6.74,6.74v9.43c0,3.72,3.02,6.74,6.74,6.74h2.86v-6.4h-2.86c-.19,0-.34-.15-.34-.34ZM28.43,50.08c.19,0,.34.15.34.34v9.43c0,.19-.15.34-.34.34H10.95c-.19,0-.34-.15-.34-.34v-9.43c0-.19.15-.34.34-.34h17.48ZM29.12,20.43c-.19,0-.34-.15-.34-.34v-9.43c0-.19.15-.34.34-.34h17.48c.19,0,.34.15.34.34v9.43c0,.19-.15.34-.34.34h-17.48Z"/>
 <polygon fill="#000" points="71.2 59.52 71.2 50.73 63.44 50.73 63.44 59.52 54.65 59.52 54.65 67.29 63.44 67.29 63.44 76.08 71.2 76.08 71.2 67.29 80 67.29 80 59.52 71.2 59.52"/>
</svg>
