<?xml version="1.0" encoding="UTF-8" standalone="no"?>
<svg version="1.1" viewBox="0 0 118.74 118.74" xmlns="http://www.w3.org/2000/svg">
 <path fill="#000000" d="M 82.68074,0 H 24.82455 C 16.95717,0 10.570447,6.3867224 10.570447,14.254104 v 90.231786 c 0,7.86738 6.386723,14.25411 14.254103,14.25411 h 69.082677 c 7.867383,0 14.254103,-6.38673 14.254103,-14.25411 V 25.480591 Z M 93.133751,103.69031 H 25.598029 V 15.027582 h 46.452908 v 6.80661 c 0,7.867382 6.386721,14.254104 14.254102,14.254104 h 6.828712 z" style="stroke-width:2.20993" />
 <polygon fill="#000000" points="65.8,75.28 53.55,63.02 48.39,68.18 48.39,75.28 " transform="matrix(2.2099385,0,0,2.2099385,-71.838159,-71.8451)" />
 <polygon fill="#000000" points="70.1,68.39 64.73,63.02 61.76,65.99 70.1,74.33 " transform="matrix(2.2099385,0,0,2.2099385,-71.838159,-71.8451)" />
</svg>
