<?xml version="1.0" encoding="UTF-8" standalone="no"?>
<!-- Generator: Adobe Illustrator 27.9.0, SVG Export Plug-In . SVG Version: 6.00 Build 0)  -->

<svg
   version="1.1"
   id="Vrstva_1"
   x="0px"
   y="0px"
   viewBox="0 0 118.74 118.74"
   style="enable-background:new 0 0 118.74 118.74;"
   xml:space="preserve"
   sodipodi:docname="file_image.svg"
   inkscape:version="1.4.2 (ebf0e940d0, 2025-05-08)"
   xmlns:inkscape="http://www.inkscape.org/namespaces/inkscape"
   xmlns:sodipodi="http://sodipodi.sourceforge.net/DTD/sodipodi-0.dtd"
   xmlns="http://www.w3.org/2000/svg"
   xmlns:svg="http://www.w3.org/2000/svg"><defs
   id="defs4" /><sodipodi:namedview
   id="namedview4"
   pagecolor="#ffffff"
   bordercolor="#000000"
   borderopacity="0.25"
   inkscape:showpageshadow="2"
   inkscape:pageopacity="0.0"
   inkscape:pagecheckerboard="0"
   inkscape:deskcolor="#d1d1d1"
   inkscape:zoom="4.5254788"
   inkscape:cx="48.282184"
   inkscape:cy="59.662195"
   inkscape:window-width="1920"
   inkscape:window-height="1028"
   inkscape:window-x="0"
   inkscape:window-y="0"
   inkscape:window-maximized="1"
   inkscape:current-layer="Vrstva_1" />
<style
   type="text/css"
   id="style1">
	.st0{fill:url(#SVGID_1_);}
	.st1{fill:#0E101F;}
	.st2{fill:#FCD213;}
	.st3{fill:#010202;}
	.st4{fill:none;stroke:#000000;stroke-width:7;stroke-miterlimit:10;}
	.st5{fill:#FDD213;}
	.st6{fill:#6BB42D;}
	.st7{fill:#E83C3D;}
	.st8{fill:#F8F9FA;}
</style>

<g
   id="g3"
   transform="matrix(2.2099385,0,0,2.2099385,-71.83405,-71.8451)">
	<path
   d="M 69.92,32.51 H 43.74 c -3.56,0 -6.45,2.89 -6.45,6.45 v 40.83 c 0,3.56 2.89,6.45 6.45,6.45 H 75 c 3.56,0 6.45,-2.89 6.45,-6.45 V 44.04 Z m 4.73,46.92 H 44.09 V 39.31 h 21.02 v 3.08 c 0,3.56 2.89,6.45 6.45,6.45 h 3.09 z"
   id="path2" />
	<polygon
   points="48.39,75.28 65.8,75.28 53.55,63.02 48.39,68.18 "
   id="polygon2" />
	<polygon
   points="70.1,74.33 70.1,68.39 64.73,63.02 61.76,65.99 "
   id="polygon3" />
</g>
<g
   id="g4">
</g>
</svg>
