<?xml version="1.0" encoding="UTF-8"?>
<svg xmlns="http://www.w3.org/2000/svg" version="1.1" viewBox="0 0 80 80">
 <path fill="#000" d="M67.79,23.53h-1.25v-8.69c0-5.4-4.39-9.8-9.8-9.8H23.26c-5.4,0-9.8,4.39-9.8,9.8v8.69h-1.25C5.48,23.53,0,29.01,0,35.74v22.32c0,2.18,1.77,3.95,3.95,3.95h15.96v8.98c0,2.18,1.77,3.95,3.95,3.95h32.27c2.18,0,3.95-1.77,3.95-3.95v-8.98h15.96c2.18,0,3.95-1.77,3.95-3.95v-22.32c0-6.73-5.48-12.21-12.21-12.21ZM21.37,14.85c0-1.04.85-1.89,1.89-1.89h33.49c1.04,0,1.89.85,1.89,1.89v8.69H21.37v-8.69ZM52.18,67.05h-24.36v-16.52h24.36v16.52ZM72.09,54.11h-8.94v-7.54c0-2.18-1.77-3.95-3.95-3.95H20.8c-2.18,0-3.95,1.77-3.95,3.95v7.54H7.91v-18.37c0-2.37,1.93-4.31,4.31-4.31h55.58c2.37,0,4.3,1.93,4.3,4.31v18.37Z"/>
 <circle fill="#000" cx="65.21" cy="39.96" r="3.31"/>
</svg>
