<?xml version="1.0" encoding="UTF-8"?>
<svg xmlns="http://www.w3.org/2000/svg" version="1.1" viewBox="0 0 80 80">
 <path fill="#000" d="M12.49,40.04c0-15.17,12.34-27.51,27.51-27.51,1.83,0,3.65.18,5.43.54-1.61,1.17-2.22,3.35-1.35,5.23.72,1.55,2.26,2.46,3.86,2.46.6,0,1.21-.13,1.79-.4l7.91-3.67c.41-.15.81-.35,1.16-.63.68-.49,1.21-1.18,1.5-1.98.39-1.06.34-2.23-.14-3.25l-3.89-8.37c-.99-2.13-3.52-3.05-5.65-2.07-1.79.83-2.71,2.74-2.38,4.6-2.69-.63-5.45-.98-8.24-.98C20.14,4.02,3.98,20.18,3.98,40.04c0,6.47,1.74,12.82,5.04,18.37.8,1.34,2.21,2.08,3.66,2.08.74,0,1.49-.19,2.17-.6,2.02-1.2,2.69-3.81,1.49-5.83-2.51-4.23-3.84-9.08-3.84-14.02Z"/>
 <path fill="#000" d="M70.98,21.67c-1.2-2.02-3.81-2.68-5.83-1.49-2.02,1.2-2.69,3.81-1.49,5.83,2.51,4.23,3.84,9.08,3.84,14.02,0,15.17-12.34,27.51-27.51,27.51-1.84,0-3.67-.19-5.45-.55,1.7-1.15,2.38-3.39,1.48-5.31-.99-2.13-3.52-3.05-5.65-2.07l-8.29,3.85c-.78.34-1.47.92-1.94,1.71-.1.18-.18.36-.25.54-.03.06-.06.12-.09.19-.06.17-.1.34-.13.51-.02.1-.06.2-.07.3-.02.14-.02.28-.03.43,0,.14-.02.27-.02.41,0,.11.03.21.04.31.02.17.04.35.08.52.01.06.04.12.06.18.06.2.11.39.2.59l3.89,8.37c.72,1.55,2.26,2.46,3.86,2.46.6,0,1.21-.13,1.79-.4,1.75-.81,2.67-2.67,2.4-4.49,2.65.61,5.37.95,8.12.95,19.86,0,36.02-16.16,36.02-36.02,0-6.47-1.74-12.82-5.04-18.37Z"/>
 <path fill="#000" d="M40,55.23c2.35,0,4.26-1.91,4.26-4.26v-6.88h6.88c2.35,0,4.26-1.91,4.26-4.26s-1.91-4.26-4.26-4.26h-6.88v-6.88c0-2.35-1.91-4.26-4.26-4.26s-4.26,1.91-4.26,4.26v6.88h-6.88c-2.35,0-4.26,1.91-4.26,4.26s1.91,4.26,4.26,4.26h6.88v6.88c0,2.35,1.91,4.26,4.26,4.26Z"/>
</svg>
