<?xml version="1.0" encoding="UTF-8"?>
<svg xmlns="http://www.w3.org/2000/svg" version="1.1" viewBox="0 0 80 80">
 <path fill="#000" d="M44.11,23.79c-.51-1.85-2.19-3.13-4.1-3.13s-3.6,1.28-4.1,3.13c-1.61,5.88-6.26,10.54-12.15,12.14-1.85.51-3.13,2.19-3.13,4.1s1.28,3.6,3.13,4.1c5.88,1.61,10.54,6.26,12.15,12.15.51,1.85,2.19,3.13,4.1,3.13s3.6-1.28,4.1-3.13c1.61-5.88,6.26-10.54,12.14-12.15,1.85-.51,3.13-2.19,3.13-4.1s-1.28-3.6-3.13-4.1c-5.88-1.61-10.54-6.26-12.14-12.14ZM40,45.58c-1.56-2.11-3.43-3.98-5.54-5.54,2.11-1.56,3.98-3.42,5.54-5.54,1.56,2.11,3.43,3.98,5.54,5.54-2.11,1.56-3.98,3.43-5.54,5.54Z"/>
 <path fill="#000" d="M12.49,40.04c0-15.17,12.34-27.51,27.51-27.51,1.83,0,3.65.18,5.43.54-1.61,1.17-2.22,3.35-1.35,5.23.72,1.55,2.26,2.46,3.86,2.46.6,0,1.21-.13,1.79-.4l7.9-3.67c.42-.15.82-.36,1.18-.64.68-.49,1.2-1.18,1.5-1.98.39-1.06.34-2.23-.14-3.25l-3.89-8.37c-.99-2.13-3.52-3.05-5.65-2.07-1.79.83-2.71,2.74-2.38,4.6-2.69-.63-5.46-.98-8.25-.98C20.14,4.02,3.98,20.18,3.98,40.04c0,6.47,1.74,12.82,5.04,18.37.8,1.34,2.21,2.08,3.66,2.08.74,0,1.49-.19,2.17-.6,2.02-1.2,2.69-3.81,1.49-5.83-2.51-4.23-3.84-9.08-3.84-14.02Z"/>
 <path fill="#000" d="M70.99,21.67c-1.2-2.02-3.81-2.68-5.83-1.49-2.02,1.2-2.69,3.81-1.49,5.83,2.51,4.23,3.84,9.08,3.84,14.02,0,15.17-12.34,27.51-27.51,27.51-1.84,0-3.67-.19-5.45-.55,1.7-1.15,2.38-3.39,1.48-5.31-.99-2.13-3.52-3.05-5.65-2.07l-8.3,3.85c-.78.34-1.47.92-1.93,1.71-.11.19-.19.38-.27.58-.02.05-.05.09-.07.14,0,0,0,0,0,.01-.07.2-.12.41-.16.62-.01.07-.04.13-.05.2-.03.17-.02.35-.03.52,0,.11-.02.21-.01.32,0,.12.03.24.05.36.02.16.03.32.07.47.01.04.03.08.04.12.06.21.13.43.22.63l3.89,8.37c.72,1.55,2.26,2.46,3.86,2.46.6,0,1.21-.13,1.79-.4,1.75-.81,2.67-2.67,2.4-4.49,2.65.61,5.37.95,8.12.95,19.86,0,36.02-16.16,36.02-36.02,0-6.47-1.74-12.82-5.04-18.37Z"/>
</svg>
