<?xml version="1.0" encoding="UTF-8"?>
<svg xmlns="http://www.w3.org/2000/svg" version="1.1" viewBox="0 0 80 80">
 <polygon fill="#000" points="44.19 50.22 44.19 40.4 35.67 35.26 35.67 57.63 44.19 50.22"/>
 <polygon fill="#000" points="18.43 35.26 35.67 35.26 53.3 35.26 61.57 27.85 26.7 27.85 18.43 35.26"/>
 <path fill="#000" d="M40,0C17.94,0,0,17.94,0,40s17.94,40,40,40,40-17.94,40-40S62.06,0,40,0ZM40,72.83c-18.13,0-32.83-14.7-32.83-32.82S21.87,7.17,40,7.17s32.82,14.7,32.82,32.83-14.7,32.82-32.82,32.82Z"/>
</svg>
