<?xml version="1.0" encoding="UTF-8"?>
<svg xmlns="http://www.w3.org/2000/svg" version="1.1" viewBox="0 0 80 80">
 <path fill="#000" d="M48.54,70.93c-2.79.78-5.73,1.21-8.78,1.21-17.96,0-32.52-14.56-32.52-32.52S21.81,7.11,39.77,7.11s32.52,14.56,32.52,32.52c0,3.14-.46,6.18-1.29,9.06h.1c2.47,0,4.77.69,6.75,1.87,1-3.47,1.55-7.14,1.55-10.93C79.39,17.77,61.61,0,39.77,0S.14,17.77.14,39.62s17.78,39.62,39.62,39.62c3.65,0,7.18-.51,10.54-1.44-1.12-1.94-1.77-4.18-1.77-6.58v-.3Z"/>
 <polygon fill="#000" points="70.53 62.44 70.53 53.12 62.3 53.12 62.3 62.44 52.98 62.44 52.98 70.67 62.3 70.67 62.3 80 70.53 80 70.53 70.67 79.86 70.67 79.86 62.44 70.53 62.44"/>
 <polygon fill="#000" points="44.15 50.12 44.15 40.39 35.71 35.3 35.71 57.47 44.15 50.12"/>
 <polygon fill="#000" points="61.37 27.96 26.83 27.96 18.63 35.3 35.71 35.3 53.17 35.3 61.37 27.96"/>
</svg>
