<?xml version="1.0" encoding="UTF-8"?>
<svg xmlns="http://www.w3.org/2000/svg" version="1.1" viewBox="0 0 80 80">
	<path fill="#000" d="M74.67,16.31H14.62c-1.39,0-2.53-1.13-2.53-2.53s1.13-2.53,2.53-2.53h52.72c3.11,0,5.63-2.52,5.63-5.63S70.45,0,67.34,0H14.62C7.02,0,.84,6.18.84,13.78v60.59c0,3.11,2.52,5.63,5.63,5.63h68.2c3.11,0,5.63-2.52,5.63-5.63V21.94c0-3.11-2.52-5.63-5.63-5.63ZM69.04,68.74H12.1V27.34c.82.15,1.66.23,2.53.23h54.41v41.17Z"/>
	<path fill="#000" d="M23.08,54.11h0c3.28,0,5.95-2.66,5.95-5.95s-2.66-5.95-5.95-5.95h0c-3.28,0-5.95,2.66-5.95,5.95s2.66,5.95,5.95,5.95Z"/>
	<path fill="#000" d="M40.57,54.11c3.28,0,5.95-2.66,5.95-5.95s-2.66-5.95-5.95-5.95-5.95,2.66-5.95,5.95,2.66,5.95,5.95,5.95Z"/>
	<path fill="#000" d="M58.06,54.11h0c3.28,0,5.95-2.66,5.95-5.95s-2.66-5.95-5.95-5.95h0c-3.28,0-5.95,2.66-5.95,5.95s2.66,5.95,5.95,5.95Z"/>
</svg>
