<?xml version="1.0" encoding="UTF-8"?>
<svg xmlns="http://www.w3.org/2000/svg" version="1.1" viewBox="0 0 80 80">
 <path fill="#000" d="M57.16,34.98c-4.21,0-7.62,3.41-7.62,7.62,0,2.84,1.57,5.29,3.88,6.6,2.04-1.24,4.42-1.96,6.97-1.96h10.2v-27.83c0-2.75-2.23-4.98-4.98-4.98H12.64c-1.11,0-2.15-.76-2.33-1.86-.23-1.4.85-2.61,2.2-2.61h46.49c2.38,0,4.53-1.61,5.01-3.94C64.66,2.81,62.22,0,59.13,0H12.51C5.78,0,.32,5.46.32,12.19v53.35c0,2.88,2.34,5.22,5.22,5.22h41.38v-9.96H10.28V24.18c.72.13,1.47.21,2.23.21h48.13v10.6h-3.47Z"/>
 <polygon fill="#000" points="69.91 61.59 69.91 51.82 61.28 51.82 61.28 61.59 51.5 61.59 51.5 70.22 61.28 70.22 61.28 80 69.91 80 69.91 70.22 79.68 70.22 79.68 61.59 69.91 61.59"/>
</svg>
