<?xml version="1.0" encoding="UTF-8"?>
<svg xmlns="http://www.w3.org/2000/svg" version="1.1" viewBox="0 0 80 80">
	<path fill="#000" d="M14.88,42.32c0,2.89,2.34,5.22,5.22,5.22s5.22-2.34,5.22-5.22-2.34-5.22-5.22-5.22-5.22,2.34-5.22,5.22Z"/>
	<path fill="#000" d="M35.47,37.09c-2.89,0-5.22,2.34-5.22,5.22s2.34,5.22,5.22,5.22h0c2.89,0,5.22-2.34,5.22-5.22s-2.34-5.22-5.22-5.22h0Z"/>
	<path fill="#000" d="M56.06,42.32c0-2.89-2.34-5.22-5.22-5.22s-5.22,2.34-5.22,5.22,2.34,5.22,5.22,5.22,5.22-2.34,5.22-5.22Z"/>
	<path fill="#000" d="M10.46,24.02c.72.13,1.46.2,2.22.2h47.81v23.17s.08,0,.13,0h9.64s.08,0,.13,0v-28.12c0-2.73-2.21-4.95-4.95-4.95H12.68c-1.22,0-2.22-1-2.22-2.22s.99-2.22,2.22-2.22h46.32c2.73,0,4.95-2.21,4.95-4.95S61.73,0,59,0H12.68C6,0,.57,5.43.57,12.11v53.23c0,2.73,2.21,4.95,4.95,4.95h41.3v-9.11c0-.26.02-.52.04-.78H10.46V24.02Z"/>
	<polygon fill="#000" points="69.72 61.72 69.72 52 61.15 52 61.15 61.72 51.43 61.72 51.43 70.29 61.15 70.29 61.15 80 69.72 80 69.72 70.29 79.43 70.29 79.43 61.72 69.72 61.72"/>
</svg>
